<svg width="10" height="18" viewBox="0 0 10 18" fill="none" xmlns="http://www.w3.org/2000/svg">
<path d="M8.46938 0.969383L0.969378 8.46939C0.899645 8.53904 0.844325 8.62176 0.806582 8.7128C0.768839 8.80385 0.749413 8.90145 0.749413 9.00001C0.749413 9.09857 0.768839 9.19617 0.806582 9.28722C0.844325 9.37826 0.899645 9.46098 0.969378 9.53064L8.46938 17.0306C8.61011 17.1714 8.80098 17.2504 9 17.2504C9.19903 17.2504 9.3899 17.1714 9.53063 17.0306C9.67136 16.8899 9.75042 16.699 9.75042 16.5C9.75042 16.301 9.67136 16.1101 9.53063 15.9694L2.56032 9.00001L9.53063 2.03063C9.60031 1.96095 9.65559 1.87823 9.6933 1.78718C9.73101 1.69614 9.75042 1.59856 9.75042 1.50001C9.75042 1.40146 9.73101 1.30388 9.6933 1.21284C9.65559 1.12179 9.60031 1.03907 9.53063 0.969383C9.46095 0.899702 9.37822 0.844427 9.28717 0.806715C9.19613 0.769003 9.09855 0.749592 9 0.749592C8.90146 0.749592 8.80388 0.769003 8.71283 0.806715C8.62179 0.844427 8.53906 0.899702 8.46938 0.969383Z" fill="#1B1C1E"/>
</svg>
