<svg width="14" height="14" viewBox="0 0 14 14" fill="none" xmlns="http://www.w3.org/2000/svg">
<path d="M8.45832 5.24996C8.45832 6.05537 7.8054 6.70829 6.99999 6.70829C6.19458 6.70829 5.54166 6.05537 5.54166 5.24996C5.54166 4.44455 6.19458 3.79163 6.99999 3.79163C7.8054 3.79163 8.45832 4.44455 8.45832 5.24996Z" stroke="#FF3864" stroke-width="0.875"/>
<path d="M10.6296 9.91663C11.4431 11.0766 11.8322 11.6943 11.6005 12.1916C11.5772 12.2414 11.55 12.2896 11.519 12.3355C11.1839 12.8333 10.3177 12.8333 8.58539 12.8333H5.41464C3.68231 12.8333 2.81614 12.8333 2.48099 12.3355C2.45004 12.2896 2.42282 12.2414 2.39958 12.1916C2.16779 11.6943 2.55691 11.0766 3.37038 9.91663" stroke="#FF3864" stroke-width="0.875" stroke-linecap="round" stroke-linejoin="round"/>
<path d="M7.73347 10.2046C7.53671 10.394 7.27375 10.5 7.00011 10.5C6.72641 10.5 6.46344 10.394 6.26668 10.2046C4.465 8.45876 2.05052 6.5085 3.22799 3.67714C3.86463 2.14623 5.39287 1.16663 7.00011 1.16663C8.60731 1.16663 10.1355 2.14624 10.7722 3.67714C11.9482 6.50494 9.53959 8.46477 7.73347 10.2046Z" stroke="#FF3864" stroke-width="0.875"/>
</svg>
